<?xml version="1.0" standalone="no"?>
<!DOCTYPE svg PUBLIC "-//W3C//DTD SVG 20010904//EN"
 "http://www.w3.org/TR/2001/REC-SVG-20010904/DTD/svg10.dtd">
<svg version="1.0" xmlns="http://www.w3.org/2000/svg"
 width="297.000000pt" height="297.000000pt" viewBox="0 0 297.000000 297.000000"
 preserveAspectRatio="xMidYMid meet">
<metadata>
Created by potrace 1.11, written by Peter Selinger 2001-2013
</metadata>
<g transform="translate(0.000000,297.000000) scale(0.100000,-0.100000)"
fill="#000000" stroke="none">
<path d="M533 2672 c-27 -17 -45 -98 -49 -222 -7 -184 -8 -626 -1 -694 5 -51
2 -66 -24 -117 -17 -32 -34 -61 -40 -64 -14 -9 -38 -59 -43 -91 -3 -16 -8 -69
-10 -118 -3 -49 -7 -91 -10 -93 -2 -3 0 -18 4 -34 5 -18 5 -29 -1 -29 -6 0 -8
-4 -5 -9 3 -5 8 -69 11 -142 2 -74 7 -147 9 -164 3 -16 7 -48 10 -70 9 -68 26
-149 38 -180 33 -85 189 -234 318 -303 33 -18 120 -53 143 -58 10 -2 26 -5 35
-8 19 -6 66 -12 162 -22 86 -9 908 -11 940 -2 127 34 193 72 290 168 75 75
171 208 176 246 1 7 8 29 14 50 28 84 36 145 34 259 -2 102 -7 135 -34 220
-66 214 -69 237 -39 310 7 17 13 32 14 35 6 20 26 121 29 145 2 17 25 111 50
210 29 114 48 215 52 275 9 116 9 112 -1 185 -13 103 -9 99 -117 112 -40 4
-59 -1 -123 -32 -61 -29 -96 -56 -179 -138 -57 -56 -114 -115 -128 -132 -31
-38 -58 -54 -131 -76 -40 -12 -74 -16 -110 -11 -60 7 -186 7 -342 0 -146 -6
-264 17 -332 65 -26 18 -92 85 -146 148 -53 63 -157 175 -230 249 -129 131
-135 136 -178 137 -24 1 -49 -1 -56 -5z"/>
</g>
</svg>
